<?xml version="1.0" encoding="utf-8"?>
<!-- Svg Vector Icons : http://www.onlinewebfonts.com/icon -->
<!DOCTYPE svg PUBLIC "-//W3C//DTD SVG 1.1//EN" "http://www.w3.org/Graphics/SVG/1.1/DTD/svg11.dtd">
<svg version="1.1" xmlns="http://www.w3.org/2000/svg" xmlns:xlink="http://www.w3.org/1999/xlink" x="0px" y="0px" viewBox="0 0 256 256" enable-background="new 0 0 256 256" xml:space="preserve">
<metadata> Svg Vector Icons : http://www.onlinewebfonts.com/icon </metadata>
<g><g><g><path fill="#000000" d="M241.4,116.9c-0.2-0.3-0.4-0.6-0.6-0.8c1.1-1.7,0.5-4.5-1.8-5.4c-3.4-1.4-7-2.5-10.6-3.4c10.9-8.5,16.3-27.9,3.6-37.1c-1.6-1.2-11.6-5.1-11.5-6.9c0.3-3.4,0.4-8.2-1.3-11.4c-3.1-5.9-8.5-6.6-14.4-6.7c-3.2-15.6-16-26.2-32.9-17.9c-8.9,4.4-15.8-2.4-24.9,0.6c-7,2.3-8.7,11-9.5,17.4c0-2.9,0-5.7,0-8.6c0-1.7-1.1-2.8-2.5-3.4c-11.9-4.4-21.4-4.5-33.3,0c-1.3,0.5-2.7,1.7-2.5,3.3c1.2,11,2.3,22,3.3,33.1c-8.9-12.3-22.3-23.1-35.8-20.8C69.1,33.5,65,4.7,44.9,3.6c-19.7-1-15.7,25.6-11.5,39c-5-0.5-10.2,0.6-15.3,0.7c-2.3,0.1-3.5,2.4-2.5,4.4c7.1,13.6,18.7,19.5,32.7,15.6c-2.4,5.6-2.9,12-2,17.8c2,12.6,11,22.6,20.8,30.1c-12.8,0.6-25.6,1.7-37.9,4.1c-0.4-0.6-1-1-2-0.8c-18.5,4-19.4,23.7-15.3,39c0.5,1.8,2,2.6,3.7,2.8c3.5,0.4,7.1,0.7,10.6,0.9c3.1,3.6,5.8,10.5,7.6,13.9c3.9,7.5,6.2,15.8,8.7,23.9c4.1,13.4,7.9,26.3,13.4,39.2c0.3,0.6,0.7,1,1.1,1.3c0.2,0.5,0.5,0.9,1,1.2c36.8,21.6,95.5,17.3,135.5,7.7c0.7-0.2,1.2-0.4,1.7-0.7c2.3,0.7,5.2-0.1,6.4-2.9c10.5-26.7,15.7-54.7,22.9-82.3C241.9,153.8,252.6,141.2,241.4,116.9z M137.7,46.9c0.5,1,2.5,1,2.9-0.3c3.1-11.1,12.9-16.5,23.7-10c0.9,0.5,2,0.5,2.9,0c13.3-8.2,30.6-7.9,31.3,12c0.1,2,1.6,3.5,3.6,3.6c10.3,0.1,11.8,6.8,10.8,15.8c-0.2,1.5,1.2,3.3,2.7,3.6c22.3,3.8,16.7,20.2,6,32.9c-0.3,0.4-0.5,0.8-0.6,1.2c-4.7-0.8-9.5-1.3-14.4-1.6c7.8-6.1,13-16.4,8.7-26.2c-4.5-10.2-14.3-11.6-23.2-7.7c-2.2-6.1-5.2-11.8-11.8-14.1c-5.9-2-11.5,3-15.6,7.9c-2.7-7.7-8-16.2-17-11.8c-4.8,2.3-8,6.3-10.1,10.8C137.6,57.7,137.6,52.3,137.7,46.9z M137,81.4c0.6-0.2,1-0.6,1-1.3c0.2-7,2-13.6,6.4-19.1c8.5-10.6,14.5,2.1,15.9,10.3c0.4,2.1,3.6,3,4.9,1.3c2.8-3.6,5.4-6.6,9.2-9.2c7.7-5.1,11,9.5,11.9,12.9c0.6,2.3,3.2,3.2,5.2,2.1c7.1-4,14.7-4.7,17.3,4.4c2.3,8.2-5.3,14.6-11.2,18.5c-1.1,0.7-1.6,1.7-1.7,2.7c-20.3,0.3-41.2,3.8-59.4,5.7c-0.2,0-0.3,0.1-0.4,0.1C136.5,100.3,136.8,90.8,137,81.4z M109.8,37.5c29.8-11.5,20.3,28.2,19.7,43.7c-0.7,18.9-1.3,37.8-1.4,56.6c-3.6-1.1-4.2-1-10.8-1.4c-1.4-0.1-2.4,0.5-3,1.3c-0.1-15.6-0.9-31.2-2-46.8C111.8,84.1,102.4,40.4,109.8,37.5z M50.3,59.7c-11.6,1.9-20.7-2.1-27.2-11.1c4.6-0.7,9.3-1.4,13.7,0.2c1.8,0.6,4-1.4,3.2-3.2c-3.2-7.9-11.5-35.4,4.9-35.9c16.8-0.5,16.2,29.1,16.5,39c0,0.6,0.3,1.1,0.6,1.6c-2.4,1-4.9,2.4-7.3,4.4C53,56.1,51.5,57.8,50.3,59.7z M58.9,60.2c5.6-5.7,14.1-5.7,21-2.6c11.8,5.3,17.8,16.9,24.1,27.4c0.8,8.4,1.5,16.7,2.4,25.1c-10.7,0.4-21.8,0.5-32.9,0.8c-0.1-0.4-0.3-0.8-0.6-1.1C59.6,99.1,43.2,76.1,58.9,60.2z M193.6,235c-0.8-0.3-1.7-0.4-2.7-0.3c-43.1,6-85.1,7.5-127.8-1.5c0.1-0.6,0.2-1.2-0.1-1.8c-6.6-16-8.9-33.6-15.1-49.9c-2.4-6.2-5.1-12.8-9.2-18.1c-2.4-3-4.3-4.4-6.3-5.6c54.9,3.5,109.6-2,164.4,2.8c7.9,0.7,15.9,0.5,23.2-0.9C209.4,184.2,201.5,209.6,193.6,235z M211.8,152.4c-15.3,0.6-30.6-2.4-45.8-3.7c-26.3-2.3-53.7,1.8-80.1,2.3c-15.4,0.3-30.9,0-46.3-0.6c-3.2-0.1-20.1,1.1-21.5-3.7c-2.8-9.9,0.3-18.7,7-25.4c0.1,0,0.2,0.1,0.4,0.1c26.7-2.1,55.7,3.5,81.8-3.4c1,9.3,2.1,18.7,3.4,28c0.3,2.1,3.6,1.5,3.7-0.5c0-0.8,0-1.5,0-2.3c0.7,0.8,1.6,1.4,3,1.4c4.5,0.7,9,1.3,13.5,2c2.4,0.7,4.7-1.2,4.8-3.6c0.1-9.9,0.3-19.8,0.6-29.7c0.2,0.1,0.3,0.1,0.5,0.1c32.5,2.7,65.8,2.7,98.4,3.8c-0.4,0.8-0.6,1.6-0.5,2.5C238.4,141.2,234.7,151.5,211.8,152.4z"/><path fill="#000000" d="M190.6,165.4c-4,3.9-8,8.1-12,12.3c-4.4-3.8-9.2-7.2-13.9-10.6c-2.6-1.9-5.9,2.4-3.4,4.4c4.4,3.5,8.8,7,13.1,10.7c-5.3,5.5-10.8,10.9-16.5,16c-0.8-0.6-1.5-1.3-2.3-1.9c-4.7-4.2-9.4-8.4-14.1-12.6c1.1-0.9,2.3-1.8,3.5-2.7c2.1-1.5,0.2-5-2.1-3.5c-1.6,1-3.1,2.2-4.7,3.3c-4.8-4.3-9.5-8.6-14.4-12.8c-2.2-1.9-5.4,1.2-3.3,3.3c4.5,4.1,9,8.4,13.5,12.6c-6.1,4.7-12,9.7-17.8,14.8c-6.2-5.4-12.5-10.6-18.9-15.7c4.4-3.4,8.8-6.6,13.6-9.5c1.7-1.1,0.2-3.4-1.5-2.7c-5.6,2.4-10.7,5.7-15.5,9.4c-5.2-4-10.4-7.9-15.7-11.7c-0.3-0.5-0.8-0.8-1.3-1c-0.7-0.5-1.4-1-2.1-1.5c-1.5-1-3.4,1.4-2,2.5c0.1,0.1,0.3,0.2,0.4,0.3c-4.3,2.4-8.3,5.1-10.6,9.6c-1.1,2.2,2.1,4.1,3.3,2c2.4-4.3,6.9-6.3,11.2-8.4c4.4,3.6,8.7,7.4,12.9,11.3c-5.7,4.8-11,10.2-16.1,15.5c-2.2-1.9-4.3-3.8-6.4-5.7c-1-0.9-2.4,0.5-1.5,1.5c1.9,2.1,3.8,4.3,5.8,6.4c-0.4,0.5-0.9,0.9-1.3,1.4c-1.4,1.5,0.8,3.7,2.3,2.3c0.4-0.4,0.8-0.8,1.2-1.2c5.1,5.7,10.3,11.3,15.9,16.4c-2.2,1.5-4.5,2.9-6.9,4.2c-1.3,0.7-0.4,3,1,2.4c3-1.2,5.9-2.6,8.7-4.1c3,2.5,6.1,4.9,9.3,7c2,1.2,4-1.5,2.4-3.1c-2.2-2.3-4.6-4.5-7-6.7c6-3.7,11.7-8.1,17.1-12.7c4.2,4,8.4,8,12.7,11.8c-2.5,1.1-5.1,2.1-7.8,2.8c-1.7,0.5-1,2.9,0.7,2.6c3.5-0.7,6.8-1.6,10.2-2.8c5.5,4.7,11.2,9.2,17.2,13.3c2.4,1.6,4.9-1.9,3-3.9c-4.1-4.2-8.4-8.4-12.7-12.5c6.9-3.3,13.5-7.5,19.7-12.3c3.6,3.5,7.3,7,11.1,10.3c-0.8,1-1.6,2-2.3,3.1c-1.5,2.3,2,4.2,3.6,2.1c0.6-0.8,1.3-1.7,2-2.4c3.8,3.1,7.7,6,11.9,8.3c2.4,1.3,4.7-1.8,2.9-3.8c-3.1-3.4-6.5-6.5-10-9.5c3.8-3.7,7.6-7.2,10.3-11.8c1.3-2.2-2-4.9-3.7-2.8c-3.2,4-6.9,7.7-10.3,11.5c-3.6-3-7.2-5.9-10.7-8.8c5.9-4.9,11.4-10.3,16.5-15.7c3.2,3,6.3,6,9.2,9.2c1.9,2.1,5.6-0.7,4-3.1c-2.6-4-5.7-7.5-9.1-10.7c3.9-4.3,7.6-8.7,10.9-12.9C195.7,166.4,192.8,163.2,190.6,165.4z M94.2,216.6c-5.9-5.3-11.9-10.5-17.9-15.7c5.4-5.2,10.9-10.2,16.7-14.9c6,5.7,11.8,11.5,17.7,17.2C105.4,207.9,100,212.5,94.2,216.6z M134.5,215c-4.7-4.4-9.5-8.8-14.4-13.2c5.8-5.1,11.5-10.2,17.3-15c4.7,4.4,9.4,8.9,14.2,13.3c0.6,0.6,1.2,1.1,1.8,1.7C147.4,206.9,141.2,211.4,134.5,215z"/><path fill="#000000" d="M67.6,74.5c-3.2,5.3-7.3,11.2-7.4,17.7c0,1.9,2.8,1.9,2.9,0c0.5-5.7,4.9-11,7.1-16.1C71,74.2,68.6,72.7,67.6,74.5z"/><path fill="#000000" d="M80,83.2c-7,4.4-13.2,9.8-13.1,18.7c0,2.6,3.9,2.6,4.1,0c0.4-6.8,5.9-11.4,11.1-15.2C84.1,85.2,82.3,81.8,80,83.2z"/><path fill="#000000" d="M89.7,95.9c-3.5,2.8-7.9,4.8-11.9,6.9c-1.8,0.9-0.2,3.6,1.6,2.7c4.3-2.1,9-4,12.3-7.6C93,96.6,91.1,94.8,89.7,95.9z"/></g><g></g><g></g><g></g><g></g><g></g><g></g><g></g><g></g><g></g><g></g><g></g><g></g><g></g><g></g><g></g></g></g>
</svg>